<svg id="Layer_1" data-name="Layer 1" xmlns="http://www.w3.org/2000/svg" viewBox="0 0 247.4 100.1"><defs><style>.cls-1,.cls-2,.cls-3{fill:#c14c49;}.cls-2,.cls-3{isolation:isolate;font-family:Poppins-Bold, Poppins;font-weight:700;}.cls-2{font-size:26.73px;}.cls-3{opacity:0.8;font-size:18px;letter-spacing:-0.05em;}</style></defs><title>logo_pitchdeck</title><polygon class="cls-1" points="43.74 32.15 37.17 38.11 31.5 47.72 26.4 38.34 19.25 32.15 31.5 19.91 43.74 32.15"/><polygon class="cls-1" points="45.56 0 31.5 4.75 16.73 0 0 12.03 13.5 26.39 13.59 34.27 31.5 16.29 49.4 34.27 49.49 26.39 62.99 12.03 45.56 0"/><path class="cls-1" d="M12,42c-1.36,1.8-9.3,21.78-9.3,21.78L18,50.28l-3.37-4.65Z" transform="translate(0 0)"/><path class="cls-1" d="M19.72,51.94c-.62,1.15-12.86,29.6-12.86,29.6L24.55,58.16l-3.15-4Z" transform="translate(0 0)"/><path class="cls-1" d="M51.58,40.21c1.38,1.83,17.47,29,17.47,29L45.56,48.52l3.52-4.84Z" transform="translate(0 0)"/><path class="cls-1" d="M43.88,50.18c.62,1.15,20.24,39.34,20.24,39.34L39.05,56.39l2.74-3.51Z" transform="translate(0 0)"/><polygon class="cls-1" points="25.82 59.33 31.64 66.66 37.17 58.6 31.68 100.1 25.82 59.33"/><path class="cls-1" d="M50.49,32.15l1.67-2.65,4.27-1.31L59,18.58l2.78-4.42L50.49,27.24Zm.9-4.83,7.17-8.38-3.22,8Z" transform="translate(0 0)"/><path class="cls-1" d="M12.41,27.24,1.12,14.16l2.77,4.42,2.59,9.61,4.27,1.31,1.66,2.65Zm-4.78-.47-2.9-7.26,6.46,7.68Z" transform="translate(0 0)"/><text class="cls-2" transform="translate(81.17 27.56)">hawk</text><text class="cls-2" transform="translate(81.17 50.84)">assumption</text><text class="cls-3" transform="translate(82.59 73.55)">pitch deck</text></svg>